:SAMPLES-PER-SECOND 30
:FULLY-SPECIFIED
:DEGREES
13
root  34.86915348 36.51543264 -14.86599389 8.183866501 -1.918076396 3.258934498
lowerback  -8.599379539 0.08847309649 0.04022387043
upperback  -3.14647007 0.5198879838 -3.17076993
thorax  1.591969967 0.3859022856 -3.236040115
lowerneck  -14.79510021 -0.4174660146 -0.3256120086
upperneck  15.68200016 -1.313109875 6.101900101
head  7.30298996 0.05004251376 1.935014367
lclavicle  0 -4.497500157e-015 -2.743230041e-014
lhumerus  -44.69129944 26.49099922 69.33750153
lradius  -0.009002206847 -6.507048965e-006 30.05884171
lwrist  4.824992743e-007 -3.790274832e-007 -26.52540016
lhand  -4.420116695e-031 -36.97710037 -10.6882
lfingers  90 7.125020027 -90
lthumb  94.85499689 -25.52104711 101.1526354
rclavicle  0 -4.497500157e-015 -2.743230041e-014
rhumerus  -47.01290131 -29.67540169 -64.49729919
rradius  -5.16745672e-007 2.214343908e-008 36.73099899
rwrist  -3.062178075e-005 0.020962568 -145.4909973
rhand  -1.767201528e-031 -2.46784997 -7.832709789
rfingers  -90 -7.125020027 -90
rthumb  -86.60806753 -7.850481319 -66.54259248
rfemur  -11.47433376 15.83569241 13.72953987
rtibia  -1.129283547 0.1345925331 20.78829765
rfoot  -0.09712983668 -20.04433441 -38.35335922
rtoes  4.089607868 19.59419483 -102.0353759
lfemur  -7.987828255 -17.81450462 -19.61841393
ltibia  2.244726896 -0.1482881159 14.84415436
lfoot  0.5496733785 -25.27704811 36.16656876
ltoes  -8.664161074 -18.09554429 -116.132542
14
root  34.86932469 36.51502714 -14.86719387 8.174851418 -1.894489408 3.254001617
lowerback  -8.579100609 0.08032352477 0.04381421953
upperback  -3.163939953 0.5098339915 -3.17076993
thorax  1.562119961 0.385289371 -3.23645997
lowerneck  -14.74590015 -0.4281069934 -0.3500120044
upperneck  15.62479973 -1.321109891 6.10656023
head  7.276130199 0.04244512692 1.933227062
lclavicle  0 -4.497500157e-015 -2.743230041e-014
lhumerus  -44.71469879 26.51819992 69.29650116
lradius  -0.009002206847 -6.507048965e-006 30.05755043
lwrist  4.824992743e-007 -3.790274832e-007 -26.58639908
lhand  -4.417297195e-031 -36.92850113 -10.7020998
lfingers  90 7.125020027 -90
lthumb  94.83520666 -25.53638232 101.1020268
rclavicle  0 -4.497500157e-015 -2.743230041e-014
rhumerus  -46.91049957 -29.24059868 -64.76580048
rradius  -5.16745672e-007 2.214343908e-008 36.95069885
rwrist  -3.062178075e-005 0.020962568 -146.029007
rhand  -1.767294701e-031 -2.5369699 -7.936399937
rfingers  -90 -7.125020027 -90
rthumb  -86.66210853 -7.751509935 -66.61550028
rfemur  -11.45777512 15.82927322 13.72558022
rtibia  -1.127672315 0.1312583834 20.78267097
rfoot  -0.1104403362 -20.06427765 -38.38838959
rtoes  4.110411721 19.5900051 -102.0974174
lfemur  -7.996171951 -17.76062965 -19.60140038
ltibia  2.235943556 -0.1156519055 14.85460567
lfoot  0.5432785749 -25.35127449 36.11350632
ltoes  -8.671041421 -18.09233415 -116.1546955
15
root  34.87076346 36.51625866 -14.8723362 8.183052063 -1.904234767 3.244927645
lowerback  -8.573269844 0.07763364166 0.04345747828
upperback  -3.16505003 0.5061410069 -3.17076993
thorax  1.557620049 0.3841519952 -3.246910095
lowerneck  -14.7553997 -0.4383819997 -0.3676069975
upperneck  15.62969971 -1.332630157 6.108272552
head  7.279870033 0.03617659584 1.931808591
lclavicle  0 -4.497500157e-015 -2.743230041e-014
lhumerus  -44.71839905 26.49720001 69.28099823
lradius  -0.009002206847 -6.507048965e-006 30.05286026
lwrist  4.824992743e-007 -3.790274832e-007 -26.54360008
lhand  -4.415618017e-031 -36.8995018 -10.71930027
lfingers  90 7.125020027 -90
lthumb  94.82525103 -25.5543446 101.0725427
rclavicle  0 -4.497500157e-015 -2.743230041e-014
rhumerus  -46.78659821 -28.80290031 -65.06400299
rradius  -5.16745672e-007 2.214343908e-008 37.16899872
rwrist  -3.062178075e-005 0.020962568 -146.5059967
rhand  -1.767463151e-031 -2.657360077 -8.024319649
rfingers  -90 -7.125020027 -90
rthumb  -86.71858655 -7.664238679 -66.73734032
rfemur  -11.47765255 15.83901787 13.72477531
rtibia  -1.128020048 0.1298185885 20.78162384
rfoot  -0.1043968946 -20.04911995 -38.39019394
rtoes  4.091489529 19.59381679 -102.0409869
lfemur  -8.065690994 -17.76276588 -19.55818176
ltibia  2.190460682 -0.1124996617 14.93840408
lfoot  0.5649846196 -25.39713287 36.14670563
ltoes  -8.70464505 -18.07660984 -116.2629481
16
root  34.8709587 36.5166942 -14.87475718 8.172267914 -1.889459252 3.256039858
lowerback  -8.565190315 0.07133578509 0.03816423565
upperback  -3.177920103 0.4981020093 -3.17076993
thorax  1.539289951 0.3818812966 -3.23439002
lowerneck  -14.74969959 -0.4482409954 -0.3927969933
upperneck  15.62139988 -1.340970039 6.109079838
head  7.27341032 0.02992386185 1.931939483
lclavicle  0 -4.497500157e-015 -2.743230041e-014
lhumerus  -44.74470139 26.55850029 69.24349976
lradius  -0.009002206847 -6.507048965e-006 30.04275322
lwrist  4.824992743e-007 -3.790274832e-007 -26.6352005
lhand  -0 -36.88869858 -10.6729002
lfingers  90 7.125020027 -90
lthumb  94.81034016 -25.50918758 101.0567914
rclavicle  0 -4.497500157e-015 -2.743230041e-014
rhumerus  -46.66820145 -28.3803997 -65.36049652
rradius  -5.16745672e-007 2.214343908e-008 37.38700104
rwrist  -3.062178075e-005 0.020962568 -146.9579926
rhand  -1.76731903e-031 -2.554709911 -8.057049751
rfingers  -90 -7.125020027 -90
rthumb  -86.71352048 -7.639860634 -66.63920388
rfemur  -11.46400928 15.82676506 13.72524834
rtibia  -1.127510548 0.1291964054 20.77810287
rfoot  -0.1056772396 -20.03857803 -38.40755463
rtoes  4.101608166 19.59178079 -102.0711618
lfemur  -8.071447372 -17.75003052 -19.57387352
ltibia  2.187710047 -0.1151651964 14.95908546
lfoot  0.573266983 -25.41510963 36.1336441
ltoes  -8.757934048 -18.05151712 -116.4348035
17
root  34.87171864 36.51674526 -14.87895936 8.166175842 -1.901836038 3.245138168
lowerback  -8.56139946 0.06614857167 0.02257901244
upperback  -3.193540096 0.5007209778 -3.17076993
thorax  1.520990014 0.3790200651 -3.23465991
lowerneck  -14.7191 -0.4468429983 -0.3892129958
upperneck  15.5948 -1.338450074 6.11011982
head  7.26240015 0.030365685 1.935549974
lclavicle  0 -4.497500157e-015 -2.743230041e-014
lhumerus  -44.770401 26.54780006 69.21240234
lradius  -0.009002206847 -6.507048965e-006 30.04018593
lwrist  4.824992743e-007 -3.790274832e-007 -26.63579941
lhand  -4.417030646e-031 -36.9239006 -10.73480034
lfingers  90 7.125020027 -90
lthumb  94.84002006 -25.56875227 101.1000573
rclavicle  0 -4.497500157e-015 -2.743230041e-014
rhumerus  -46.58769989 -28.01910019 -65.62480164
rradius  -5.16745672e-007 2.214343908e-008 37.62379456
rwrist  -3.062178075e-005 0.020962568 -147.3500061
rhand  -1.767118542e-031 -2.404609919 -8.008540154
rfingers  -90 -7.125020027 -90
rthumb  -86.66744298 -7.692654605 -66.49058299
rfemur  -11.45736408 15.81642628 13.72688961
rtibia  -1.122469902 0.1286144406 20.76172447
rfoot  -0.09348803759 -20.04459 -38.39054108
rtoes  4.094471924 19.59321724 -102.0498804
lfemur  -8.112821579 -17.79749107 -19.54358673
ltibia  2.146002531 -0.1356129944 15.03277397
lfoot  0.5688843727 -25.4077816 36.14751434
ltoes  -8.77677236 -18.04260034 -116.4956118
